<svg width="87" height="100" viewBox="0 0 87 100" fill="none" xmlns="http://www.w3.org/2000/svg">
<path d="M56.08 61.6038C54.086 63.9121 51.9591 66.0494 49.6993 68.1297C46.5355 71.0648 43.3186 73.9146 40.0485 76.6503C36.5391 74.342 34.0134 73.1736 33.588 73.7721C33.2158 74.3135 34.678 76.3083 37.3101 78.9015C28.4834 85.9403 19.1516 92.1527 9.12858 97.2536C7.55999 98.0516 5.91164 98.6215 4.28987 99.2484C3.86449 99.4194 3.41252 99.4194 3.22642 99.4479C0.674133 99.7614 -0.0968698 99.0205 0.00947539 96.5127C0.328511 88.7045 2.58835 81.3808 4.92794 74.0855C5.56601 72.0907 6.23067 70.0959 6.92192 68.1012C10.4579 70.4094 12.9836 71.6063 13.409 71.0079C13.8609 70.3524 11.734 67.7307 8.17147 64.4535C10.7238 57.3863 13.5685 50.433 16.9184 43.7647C23.6181 49.0936 29.5734 52.5988 30.2381 51.6299C30.9028 50.6609 25.9843 45.503 19.2048 40.117L18.9123 39.8891C20.0821 37.7518 21.3051 35.6145 22.6078 33.5342C24.2296 30.9125 26.2236 28.5187 28.191 26.182C30.823 23.0758 34.2261 22.0214 38.0279 22.9333C50.2044 25.84 58.6589 33.3347 62.6468 46.1869C63.4444 48.8086 62.7266 51.3734 61.477 53.7386C60.6263 55.3345 59.6957 56.8448 58.6589 58.2697C52.225 53.2257 46.6419 49.977 46.0038 50.8889C45.3923 51.8008 49.8322 56.5028 56.08 61.6038Z" fill="#F3603F"/>
<path fill-rule="evenodd" clip-rule="evenodd" d="M55.3854 9.47921C55.8689 4.80487 52.8065 0.584022 48.487 0.0607753C44.1675 -0.497354 40.267 2.85142 39.7835 7.52576C39.2033 12.8629 40.0091 19.2465 41.0407 25.8045C43.9096 26.7463 46.6818 28.1068 49.2607 29.7114C52.0329 22.6301 54.7407 15.6186 55.3854 9.47921ZM85.7187 29.9905C84.0103 25.665 79.3684 23.7115 75.3712 25.5603C70.1169 28.037 64.6691 32.8858 59.1891 37.874C61.2522 40.0717 63.1863 42.5484 64.8303 45.2344C71.0517 44.3972 77.0152 43.3856 81.6248 41.2228C85.622 39.3042 87.4594 34.2811 85.7187 29.9905ZM72.47 7.17692C68.9886 4.38628 64.0566 5.15371 61.4778 8.92108C57.5451 14.6419 54.9018 23.1883 52.0329 31.5253C52.9999 32.223 53.9025 32.9206 54.7729 33.6532C55.4176 34.2113 56.0945 34.8043 56.7715 35.3973C63.3475 30.0253 70.1813 24.7929 74.114 19.0721C76.6928 15.3047 75.9514 9.96757 72.47 7.17692Z" fill="#53B175"/>
</svg>
