<svg width="22" height="18" viewBox="0 0 22 18" fill="none" xmlns="http://www.w3.org/2000/svg">
<path d="M9.62788 13.4386C10.5413 13.4386 11.4458 13.2928 12.2897 13.0096C13.1336 12.7264 13.9004 12.3113 14.5463 11.788C15.1922 11.2647 15.7046 10.6435 16.0541 9.95975C16.4037 9.27603 16.5836 8.54323 16.5836 7.80317C16.5836 7.06312 16.4037 6.33031 16.0541 5.6466C15.7046 4.96288 15.1922 4.34163 14.5463 3.81834C13.9004 3.29504 13.1336 2.87994 12.2897 2.59673C11.4458 2.31353 10.5413 2.16776 9.62788 2.16776C7.7831 2.16776 6.01388 2.76149 4.70942 3.81834C3.40497 4.87518 2.67213 6.30857 2.67213 7.80317C2.67213 9.29778 3.40497 10.7312 4.70942 11.788C6.01388 12.8449 7.7831 13.4386 9.62788 13.4386ZM16.9546 12.4111L21.1049 15.7735C21.2155 15.8602 21.3037 15.9639 21.3644 16.0785C21.425 16.1932 21.4569 16.3164 21.4581 16.4411C21.4594 16.5659 21.4299 16.6895 21.3715 16.8049C21.3131 16.9203 21.227 17.0251 21.118 17.1132C21.0091 17.2014 20.8796 17.271 20.7371 17.3182C20.5946 17.3653 20.4419 17.389 20.288 17.3878C20.1341 17.3867 19.982 17.3607 19.8406 17.3114C19.6992 17.2621 19.5713 17.1904 19.4645 17.1007L15.3142 13.7382C13.4506 14.9102 11.1057 15.4628 8.75696 15.2834C6.40819 15.1041 4.23208 14.2062 2.67161 12.7727C1.11114 11.3392 0.283627 9.47778 0.357521 7.56735C0.431416 5.65693 1.40117 3.84113 3.06936 2.48959C4.73755 1.13805 6.97878 0.352377 9.3368 0.292509C11.6948 0.232641 13.9924 0.903078 15.7618 2.16734C17.5311 3.4316 18.6393 5.19465 18.8607 7.09758C19.0821 9.00051 18.4001 10.9003 16.9534 12.4101L16.9546 12.4111Z" fill="#181B19"/>
</svg>
