<svg width="54" height="48" viewBox="0 0 54 48" fill="none" xmlns="http://www.w3.org/2000/svg">
<path d="M52.0397 41.152L52.0387 41.1512L35.5756 27.2475L35.5753 27.2472L31.762 24.0689L52.0387 6.9871C52.4527 6.63829 52.7863 6.25266 52.9955 5.82967C53.2035 5.40909 53.3291 4.95191 53.3291 4.49323C53.3291 4.0039 53.2462 3.54515 52.9947 3.12047C52.7873 2.70172 52.4964 2.28122 52.1208 1.96477L52.1208 1.96472L52.1188 1.96316C51.7057 1.65 51.2495 1.37015 50.7503 1.19493C50.2507 1.01958 49.67 0.95 49.1326 0.95C48.5924 0.95 48.0534 1.05502 47.516 1.22913L47.516 1.22911L47.5149 1.22951C47.0157 1.40472 46.5589 1.68474 46.1854 1.99935L22.9482 21.5753C22.5731 21.8913 22.2815 22.2773 22.0734 22.6981L22.0734 22.6981L22.0728 22.6995C21.8655 23.1535 21.7398 23.6103 21.7398 24.0691C21.7398 24.5278 21.8654 24.985 22.0734 25.4056C22.2815 25.8263 22.5731 26.2124 22.9482 26.5284L46.1854 46.1043L46.1865 46.1051C46.9768 46.7359 48.0148 47.0499 49.0915 47.0499C50.1703 47.0499 51.2082 46.6656 51.9565 46.0351C52.746 45.3701 53.1646 44.527 53.1649 43.6116C53.2064 42.6953 52.7877 41.8172 52.0397 41.152Z" fill="#B3B3B3" stroke="#B3B3B3" stroke-width="0.1"/>
<path d="M1.43128 6.84775L1.43225 6.84857L17.8954 20.7523L17.8956 20.7525L21.709 23.9308L1.4323 41.0127C1.01824 41.3615 0.68463 41.7471 0.475424 42.1701C0.267403 42.5907 0.1418 43.0478 0.1418 43.5065C0.1418 43.9959 0.224707 44.4546 0.476275 44.8793C0.683615 45.298 0.974539 45.7185 1.35018 46.035L1.35014 46.035L1.35219 46.0366C1.76523 46.3498 2.22146 46.6296 2.72066 46.8048C3.22021 46.9802 3.80097 47.0498 4.33838 47.0498C4.87857 47.0498 5.41759 46.9447 5.95494 46.7706L5.95495 46.7706L5.95609 46.7702C6.45524 46.595 6.91205 46.315 7.28551 46.0004L30.5228 26.4245C30.8979 26.1085 31.1894 25.7224 31.3975 25.3017L31.3976 25.3017L31.3982 25.3003C31.6055 24.8463 31.7312 24.3894 31.7312 23.9306C31.7312 23.4719 31.6056 23.0148 31.3975 22.5942C31.1894 22.1734 30.8979 21.7874 30.5228 21.4713L7.28553 1.89543L7.28449 1.89461C6.49411 1.26381 5.45617 0.949854 4.37944 0.949854C3.30063 0.949854 2.26273 1.3342 1.51441 1.96462C0.724949 2.62969 0.306374 3.47273 0.306023 4.38817C0.264565 5.30448 0.683272 6.18257 1.43128 6.84775Z" fill="#B3B3B3" stroke="#B3B3B3" stroke-width="0.1"/>
</svg>
