<svg width="74" height="63" viewBox="0 0 74 63" fill="none" xmlns="http://www.w3.org/2000/svg">
<path d="M12.0606 28.3228L37.1629 53.4252L62.2652 28.3228C64.4846 26.1035 65.7314 23.0934 65.7314 19.9547C65.7314 16.8161 64.4846 13.806 62.2652 11.5866C61.1663 10.4877 59.8617 9.61602 58.4259 9.0213C56.9901 8.42657 55.4512 8.12047 53.8971 8.12047C50.7585 8.12047 47.7484 9.36729 45.529 11.5866L37.1629 19.9528L28.7968 11.5906C26.5718 9.40101 23.5717 8.17933 20.45 8.19168C17.3283 8.20402 14.338 9.44938 12.1304 11.6565C9.92276 13.8636 8.6767 16.8536 8.66362 19.9753C8.65054 23.0969 9.87151 26.0973 12.0606 28.3228ZM34.3742 6.00529L37.1629 8.79399L39.9516 6.00529C41.78 4.16075 43.9548 2.69553 46.351 1.69375C48.7473 0.69196 51.3178 0.173336 53.915 0.167649C56.5122 0.161961 59.085 0.669323 61.4856 1.66061C63.8862 2.65189 66.0673 4.10757 67.9038 5.94408C69.7403 7.78058 71.196 9.96175 72.1873 12.3623C73.1786 14.7629 73.686 17.3357 73.6803 19.9329C73.6746 22.5301 73.156 25.1006 72.1542 27.4969C71.1524 29.8931 69.6872 32.0679 67.8426 33.8963L39.9555 61.7873C39.5892 62.1541 39.1542 62.445 38.6753 62.6435C38.1965 62.842 37.6832 62.9442 37.1649 62.9442C36.6465 62.9442 36.1332 62.842 35.6544 62.6435C35.1755 62.445 34.7405 62.1541 34.3742 61.7873L6.48315 33.9003C4.61353 32.0777 3.12442 29.902 2.10219 27.4995C1.07996 25.0969 0.544966 22.5153 0.528237 19.9044C0.511508 17.2935 1.01338 14.7052 2.00474 12.2898C2.9961 9.8743 4.45721 7.67974 6.30332 5.83337C8.14943 3.987 10.3438 2.52558 12.7591 1.53388C15.1744 0.542174 17.7626 0.039936 20.3735 0.0562954C22.9845 0.0726548 25.5661 0.607286 27.9688 1.62918C30.3715 2.65106 32.5474 4.13987 34.3702 6.00923L34.3742 6.00529Z" fill="#7C7C7C"/>
</svg>
