<svg width="41" height="74" viewBox="0 0 41 74" fill="none" xmlns="http://www.w3.org/2000/svg">
<path d="M39.3429 64.6526C40.3051 65.7098 40.8396 67.1007 40.7862 68.5474C40.7862 69.994 40.2516 71.3293 39.236 72.3865C38.2738 73.388 36.9374 74 35.5476 74C34.1578 74 32.8214 73.4992 31.8057 72.4977L1.5502 41.006C1.0691 40.5053 0.694915 39.8932 0.42764 39.2256C0.160365 38.5579 0 37.8346 0 37.1113C0 36.388 0.160365 35.6647 0.42764 34.9414C0.694915 34.2737 1.0691 33.6617 1.5502 33.1609L31.8057 1.66917C32.2868 1.16842 32.8748 0.723308 33.5163 0.445113C34.2112 0.166917 34.9061 0 35.601 0C36.296 0 37.0443 0.111278 37.6858 0.389474C38.3273 0.667669 38.9153 1.11278 39.4498 1.61353C39.9309 2.11429 40.3051 2.78195 40.5724 3.44962C40.8931 4.11729 41 4.8406 41 5.61955C41 6.34286 40.8396 7.06616 40.5724 7.73383C40.3051 8.4015 39.8774 9.01353 39.3429 9.56992L12.8827 37.1113L17.9074 42.2857L39.3429 64.6526Z" fill="#181725"/>
</svg>
