<svg width="32" height="21" viewBox="0 0 32 21" fill="none" xmlns="http://www.w3.org/2000/svg">
<path d="M31.3224 10.4868C31.3224 10.9434 31.0613 11.3848 30.5732 11.7043C30.0964 12.0315 29.4379 12.2142 28.7568 12.2142H18.4942V19.0931C18.4942 19.5496 18.2218 19.991 17.7336 20.3106C17.2568 20.6302 16.6097 20.8128 15.9286 20.8128C15.2475 20.8128 14.589 20.6302 14.1122 20.3106C13.6241 19.991 13.3516 19.5496 13.3516 19.0931V12.2142H3.08907C2.40793 12.2142 1.74949 12.0315 1.27269 11.7043C0.795894 11.3848 0.523438 10.9434 0.523438 10.4868C0.523438 10.0303 0.795894 9.59654 1.27269 9.26934C1.74949 8.94974 2.40793 8.76712 3.08907 8.76712H13.3516V1.88822C13.3516 1.43166 13.6241 0.990313 14.1122 0.670718C14.589 0.343514 15.2475 0.160889 15.9286 0.160889C16.6097 0.160889 17.2568 0.343514 17.7336 0.670718C18.2218 0.990313 18.4942 1.43166 18.4942 1.88822V8.76712H28.7568C29.4379 8.76712 30.0964 8.94974 30.5732 9.26934C31.0613 9.59654 31.3224 10.0303 31.3224 10.4868Z" fill="#53B175"/>
</svg>
