<svg width="49" height="49" viewBox="0 0 49 49" fill="none" xmlns="http://www.w3.org/2000/svg">
<path d="M27.9433 11.5847L28.2003 11.8467L32.0533 15.7733C32.3591 16.0847 32.7221 16.3315 33.1214 16.5C33.5207 16.6684 33.9487 16.7551 34.3808 16.7553C34.8129 16.7555 35.2409 16.669 35.6403 16.5009C36.0398 16.3327 36.4029 16.0861 36.7089 15.775C37.015 15.4639 37.2579 15.0943 37.4238 14.6874C37.5896 14.2805 37.6751 13.8442 37.6753 13.4036C37.6754 12.9629 37.5902 12.5266 37.4247 12.1195C37.2591 11.7125 37.0164 11.3428 36.7106 11.0314L26.9783 1.13422L26.978 1.13389C26.6731 0.821905 26.3107 0.574462 25.9117 0.405661C25.5128 0.236863 25.085 0.15 24.6531 0.15C24.2212 0.15 23.7934 0.236863 23.3945 0.405661C22.9955 0.574462 22.6331 0.821905 22.3282 1.13389L22.3278 1.13424L12.5955 11.028C11.9774 11.6564 11.6295 12.5094 11.6292 13.3994C11.6289 14.2895 11.9762 15.1428 12.5939 15.7716C13.2115 16.4003 14.0488 16.7532 14.9214 16.7536C15.7939 16.7539 16.6314 16.4016 17.2494 15.7733L27.9433 11.5847ZM27.9433 11.5847V11.9517V31.6973C27.9433 32.5865 27.596 33.4388 26.9787 34.0668C26.3615 34.6947 25.5249 35.047 24.6531 35.047C23.7813 35.047 22.9447 34.6947 22.3275 34.0668C21.7102 33.4388 21.3629 32.5865 21.3629 31.6973V11.9517V11.5849L21.1059 11.8466L17.2495 15.7733L27.9433 11.5847ZM7.45215 27.8516H7.30215V28.0016V42.0005V42.1505H7.45215H41.854H42.004V42.0005V28.0016V27.8516H41.854H38.4138C37.5421 27.8516 36.7055 27.4993 36.0882 26.8713C35.4709 26.2433 35.1237 25.391 35.1237 24.5018C35.1237 23.6126 35.4709 22.7603 36.0882 22.1323C36.7055 21.5044 37.5421 21.1521 38.4138 21.1521H41.854C43.6382 21.1521 45.3498 21.8731 46.6122 23.1573C47.8747 24.4417 48.5844 26.1841 48.5844 28.0016V42.0005C48.5844 43.8179 47.8747 45.5604 46.6122 46.8447C45.3498 48.129 43.6382 48.85 41.854 48.85H7.45215C5.66798 48.85 3.95636 48.129 2.69396 46.8447C1.43148 45.5604 0.721777 43.8179 0.721777 42.0005V28.0016C0.721777 26.1841 1.43148 24.4417 2.69396 23.1573C3.95636 21.8731 5.66798 21.1521 7.45215 21.1521H10.8923C11.7641 21.1521 12.6007 21.5044 13.2179 22.1323C13.8353 22.7603 14.1825 23.6126 14.1825 24.5018C14.1825 25.391 13.8353 26.2433 13.2179 26.8713C12.6007 27.4993 11.7641 27.8516 10.8923 27.8516H7.45215Z" fill="#181725" stroke="white" stroke-width="0.3"/>
</svg>
