<svg width="46" height="45" viewBox="0 0 46 45" fill="none" xmlns="http://www.w3.org/2000/svg">
<path d="M8.9791 20.6003L23.6188 35.2401L38.2586 20.6003C39.5529 19.306 40.2801 17.5505 40.2801 15.72C40.2801 13.8896 39.5529 12.1341 38.2586 10.8398C37.6177 10.1989 36.8569 9.69048 36.0195 9.34363C35.1821 8.99679 34.2847 8.81827 33.3783 8.81827C31.5478 8.81827 29.7923 9.54541 28.498 10.8398L23.6188 15.7189L18.7397 10.8421C17.4421 9.56508 15.6924 8.8526 13.8718 8.85979C12.0513 8.86699 10.3073 9.59329 9.01982 10.8805C7.73233 12.1677 7.00562 13.9115 6.99799 15.732C6.99036 17.5526 7.70244 19.3024 8.9791 20.6003ZM21.9925 7.58468L23.6188 9.21107L25.2452 7.58468C26.3116 6.50895 27.5799 5.65443 28.9774 5.07018C30.3749 4.48594 31.874 4.18347 33.3887 4.18016C34.9034 4.17684 36.4039 4.47274 37.8039 5.05085C39.2039 5.62897 40.476 6.47793 41.5471 7.54899C42.6181 8.62004 43.4671 9.89211 44.0452 11.2921C44.6233 12.6922 44.9192 14.1926 44.9159 15.7073C44.9126 17.222 44.6101 18.7211 44.0259 20.1186C43.4416 21.5161 42.5871 22.7845 41.5114 23.8508L25.2475 40.1169C25.0339 40.3308 24.7802 40.5005 24.5009 40.6163C24.2216 40.732 23.9223 40.7916 23.62 40.7916C23.3177 40.7916 23.0183 40.732 22.7391 40.6163C22.4598 40.5005 22.2061 40.3308 21.9925 40.1169L5.72633 23.8531C4.63597 22.7902 3.76751 21.5213 3.17134 20.1202C2.57518 18.719 2.26317 17.2134 2.25341 15.6907C2.24365 14.168 2.53635 12.6585 3.11451 11.2498C3.69267 9.84111 4.5448 8.56123 5.62146 7.48442C6.69811 6.40761 7.97787 5.55531 9.38649 4.97694C10.7951 4.39858 12.3045 4.10568 13.8272 4.11522C15.3499 4.12476 16.8556 4.43656 18.2569 5.03252C19.6581 5.62849 20.9271 6.49677 21.9902 7.58699L21.9925 7.58468Z" fill="#181725"/>
</svg>
