<svg width="55" height="45" viewBox="0 0 55 45" fill="none" xmlns="http://www.w3.org/2000/svg">
<path d="M21.2878 44.336C19.703 44.336 18.1832 43.7521 17.0625 42.7128C15.9419 41.6735 15.3124 40.2638 15.3124 38.794C15.3124 37.3242 15.9419 35.9146 17.0625 34.8752C18.1832 33.8359 19.703 33.252 21.2878 33.252C22.8726 33.252 24.3924 33.8359 25.513 34.8752C26.6336 35.9146 27.2632 37.3242 27.2632 38.794C27.2632 40.2638 26.6336 41.6735 25.513 42.7128C24.3924 43.7521 22.8726 44.336 21.2878 44.336ZM42.2017 44.336C40.6169 44.336 39.0971 43.7521 37.9764 42.7128C36.8558 41.6735 36.2263 40.2638 36.2263 38.794C36.2263 37.3242 36.8558 35.9146 37.9764 34.8752C39.0971 33.8359 40.6169 33.252 42.2017 33.252C43.7865 33.252 45.3063 33.8359 46.4269 34.8752C47.5475 35.9146 48.1771 37.3242 48.1771 38.794C48.1771 40.2638 47.5475 41.6735 46.4269 42.7128C45.3063 43.7521 43.7865 44.336 42.2017 44.336ZM3.24806 5.32863C2.50222 5.30632 1.79497 5.01584 1.27588 4.51862C0.756787 4.0214 0.466553 3.35643 0.466553 2.66432C0.466553 1.97221 0.756787 1.30723 1.27588 0.810012C1.79497 0.312792 2.50222 0.0223116 3.24806 0L6.68691 0C9.38181 0 11.7122 1.73465 12.2978 4.17313L16.0414 19.8071C16.627 22.2456 18.9574 23.9802 21.6523 23.9802H44.0959L48.4042 7.99157H20.4841C19.7453 7.9603 19.0479 7.66608 18.537 7.17011C18.0261 6.67414 17.741 6.01459 17.741 5.32863C17.741 4.64268 18.0261 3.98313 18.537 3.48716C19.0479 2.99119 19.7453 2.69697 20.4841 2.6657H48.4042C49.2776 2.66546 50.1395 2.84991 50.9245 3.20503C51.7095 3.56015 52.3969 4.07659 52.9344 4.71509C53.4719 5.35359 53.8454 6.09734 54.0264 6.88981C54.2075 7.68227 54.1913 8.50259 53.9792 9.28839L49.6709 25.2715C49.3604 26.4248 48.6429 27.4487 47.6327 28.1802C46.6225 28.9118 45.3776 29.3091 44.0959 29.3089H21.6523C19.0374 29.3092 16.5007 28.4824 14.4609 26.9649C12.4212 25.4474 11.0005 23.3301 10.4335 20.9626L6.68691 5.32863H3.24806Z" fill="#181725"/>
</svg>
