<svg width="61" height="34" viewBox="0 0 61 34" fill="none" xmlns="http://www.w3.org/2000/svg">
<path d="M38.6773 26.0615C40.344 26.0615 41.9943 25.7726 43.5341 25.2113C45.0739 24.65 46.473 23.8273 47.6515 22.7902C48.83 21.7531 49.7649 20.5218 50.4027 19.1668C51.0405 17.8117 51.3688 16.3594 51.3688 14.8927C51.3688 13.426 51.0405 11.9736 50.4027 10.6186C49.7649 9.26349 48.83 8.03225 47.6515 6.99513C46.473 5.95801 45.0739 5.13533 43.5341 4.57404C41.9943 4.01276 40.344 3.72387 38.6773 3.72387C35.3114 3.72387 32.0833 4.90058 29.7032 6.99513C27.3231 9.08969 25.9859 11.9305 25.9859 14.8927C25.9859 17.8548 27.3231 20.6956 29.7032 22.7902C32.0833 24.8848 35.3114 26.0615 38.6773 26.0615ZM52.0456 24.025L59.6182 30.6891C59.82 30.8609 59.981 31.0664 60.0917 31.2936C60.2024 31.5208 60.2605 31.7651 60.2628 32.0122C60.265 32.2594 60.2113 32.5045 60.1047 32.7332C59.9982 32.9619 59.841 33.1696 59.6422 33.3442C59.4435 33.5189 59.2072 33.657 58.9472 33.7504C58.6872 33.8438 58.4086 33.8908 58.1277 33.8884C57.8469 33.8861 57.5694 33.8346 57.3114 33.7369C57.0534 33.6392 56.8201 33.4972 56.6251 33.3193L49.0526 26.6553C45.6522 28.9781 41.3738 30.0732 37.0883 29.7177C32.8027 29.3623 28.8322 27.5829 25.985 24.7418C23.1378 21.9007 21.6279 18.2116 21.7627 14.4253C21.8975 10.639 23.6669 7.0403 26.7107 4.36169C29.7545 1.68309 33.8438 0.125966 38.1463 0.00731373C42.4487 -0.111338 46.6408 1.2174 49.8692 3.72303C53.0976 6.22867 55.1195 9.72284 55.5235 13.4942C55.9274 17.2656 54.683 21.0308 52.0435 24.0232L52.0456 24.025Z" fill="#53B175"/>
<rect x="0.297363" width="18.7304" height="4.46608" rx="2.23304" fill="#53B175"/>
<rect x="0.297363" y="13.8459" width="13.6732" height="4.46608" rx="2.23304" fill="#53B175"/>
<rect x="0.297363" y="27.6926" width="18.7304" height="4.46608" rx="2.23304" fill="#53B175"/>
</svg>
