<svg width="61" height="61" viewBox="0 0 61 61" fill="none" xmlns="http://www.w3.org/2000/svg">
<path d="M22.9483 23.2492C24.2825 24.4449 26.0496 25.1724 27.9828 25.1724H33.0173C34.8754 25.1749 36.6687 24.4899 38.0518 23.2492H22.9483ZM22.9483 23.2492C21.5652 24.4899 19.7719 25.1749 17.9139 25.1724L22.9483 23.2492ZM20.4811 10.0689V10.0189H20.4311H12.8794C12.1985 10.0189 11.5455 10.2894 11.0641 10.7708C10.5826 11.2523 10.3121 11.9053 10.3121 12.5861V17.6206C10.3121 18.3015 10.5826 18.9545 11.0641 19.4359C11.5455 19.9174 12.1985 20.1879 12.8794 20.1879H17.9139C18.5947 20.1879 19.2477 19.9174 19.7292 19.4359C20.2106 18.9545 20.4811 18.3015 20.4811 17.6206V10.0689ZM12.9045 25.1224H12.8545V25.1724V50.2567V50.3067H12.9045H17.9139H17.9639V50.2567V37.7586C17.9639 36.4366 18.489 35.1688 19.4238 34.234C20.3585 33.2992 21.6264 32.7741 22.9483 32.7741H27.9828C29.3048 32.7741 30.5726 33.2992 31.5074 34.234C32.4421 35.1688 32.9673 36.4366 32.9673 37.7586V50.2567V50.3067H33.0173H48.1535H48.2035V50.2567V25.1724V25.1224H48.1535H43.0863C41.1658 25.1224 39.4105 24.3997 38.0852 23.2119L38.0518 23.182L38.0184 23.212C36.6445 24.4444 34.8631 25.1249 33.0174 25.1224H33.0173H27.9828C26.0623 25.1224 24.307 24.3997 22.9817 23.2119L22.9483 23.182L22.9149 23.212C21.541 24.4444 19.7596 25.1249 17.9139 25.1224H17.9139H12.9045ZM7.86807 23.2056C7.0892 22.5079 6.46504 21.6546 6.03603 20.7006C5.60059 19.7323 5.37616 18.6824 5.37764 17.6207V17.6206V12.5861C5.37764 10.5966 6.168 8.68847 7.57485 7.28163C8.98169 5.87478 10.8898 5.08442 12.8794 5.08442H48.1208C50.1103 5.08442 52.0184 5.87478 53.4253 7.28163C54.8321 8.68847 55.6225 10.5966 55.6225 12.5861V17.6206C55.6225 19.8262 54.6723 21.8116 53.1544 23.1844L53.138 23.1993V23.2215V50.2567C53.138 51.5786 52.6128 52.8465 51.678 53.7812C50.7433 54.716 49.4754 55.2411 48.1535 55.2411H28.9217V55.2403L28.9125 55.242C28.606 55.3 28.2947 55.3292 27.9828 55.3293H22.9483C22.6364 55.3292 22.3252 55.3 22.0187 55.242L22.0189 55.2411H22.0094H12.9071C11.5851 55.2411 10.3173 54.716 9.3825 53.7812C8.44772 52.8465 7.92257 51.5786 7.92257 50.2567V23.2718V23.1512L7.86807 23.2056ZM28.0328 37.7586V37.7086H27.9828H22.9483H22.8983V37.7586V50.2567V50.3067H22.9483H27.9828V50.2592H28.0328V50.2567V50.2067V37.7586ZM35.5845 10.0689V10.0189H35.5345H25.4656H25.4156V10.0689V17.6206C25.4156 18.3015 25.6861 18.9545 26.1675 19.4359C26.649 19.9174 27.3019 20.1879 27.9828 20.1879H33.0173C33.6982 20.1879 34.3512 19.9174 34.8326 19.4359C35.3141 18.9545 35.5845 18.3015 35.5845 17.6206V10.0689ZM40.569 10.0189H40.519V10.0689V17.6206C40.519 18.3015 40.7895 18.9545 41.271 19.4359C41.7524 19.9174 42.4054 20.1879 43.0863 20.1879H48.1208C48.8016 20.1879 49.4546 19.9174 49.9361 19.4359C50.4175 18.9545 50.688 18.3015 50.688 17.6206V12.5861C50.688 11.9053 50.4175 11.2523 49.9361 10.7708C49.4546 10.2894 48.8016 10.0189 48.1208 10.0189H40.569ZM40.569 32.7741H43.0863C43.7406 32.7741 44.3682 33.034 44.8309 33.4967C45.2936 33.9594 45.5535 34.587 45.5535 35.2413V42.793C45.5535 43.4474 45.2936 44.0749 44.8309 44.5376C44.3682 45.0003 43.7406 45.2603 43.0863 45.2603H40.569C39.9147 45.2603 39.2871 45.0003 38.8244 44.5376C38.3617 44.0749 38.1018 43.4474 38.1018 42.793V35.2413C38.1018 34.587 38.3617 33.9594 38.8244 33.4967C39.2871 33.034 39.9147 32.7741 40.569 32.7741Z" fill="#181725" stroke="white" stroke-width="0.1"/>
</svg>
